<svg preserveAspectRatio="none" width="100%" height="100%" overflow="visible" style="display: block;" viewBox="0 0 152.78 56.9688" fill="none" xmlns="http://www.w3.org/2000/svg">
<g id="Logo">
<g id="Vector">
<path fill-rule="evenodd" clip-rule="evenodd" d="M25.2095 39.6579C26.217 38.5384 26.7219 37.1111 26.7219 35.3736C26.7219 33.6375 26.217 32.213 25.2095 31.1016C24.2006 29.9894 22.983 29.4329 21.5548 29.4329C20.1258 29.4329 18.9076 29.9894 17.8994 31.1016C16.8911 32.213 16.387 33.6375 16.387 35.3736C16.387 37.1111 16.8911 38.5384 17.8994 39.6579C18.9076 40.7773 20.1258 41.3374 21.5548 41.3374C22.983 41.3374 24.2006 40.7773 25.2095 39.6579ZM23.8548 24.9111C24.8977 25.4291 25.6365 25.9312 26.0707 26.4189L26.7218 27.2159V17.4764C26.7218 16.2808 27.6679 15.3114 28.8345 15.3114H30.407C31.5736 15.3114 32.5196 16.2808 32.5196 17.4764V44.0155C32.5196 45.2117 31.5736 46.1805 30.407 46.1805H28.8345C27.6679 46.1805 26.7218 45.2117 26.7218 44.0155V43.5322C26.666 43.6184 26.579 43.7307 26.4595 43.8655C26.3407 44.0024 26.0883 44.2466 25.703 44.5973C25.3184 44.9502 24.9012 45.2646 24.4536 45.545C24.0054 45.824 23.4242 46.0718 22.7101 46.2877C21.9959 46.5036 21.2536 46.6108 20.4822 46.6108C17.7523 46.6108 15.3815 45.524 13.3728 43.3496C11.3634 41.1752 10.358 38.5161 10.358 35.3729C10.358 32.2313 11.3634 29.5729 13.3728 27.3985C15.3815 25.2241 17.7523 24.1372 20.4822 24.1372C21.6877 24.1372 22.8105 24.3952 23.8548 24.9111Z" fill="#0000B4"/>
<path fill-rule="evenodd" clip-rule="evenodd" d="M44.0571 30.3147C43.1952 31.0465 42.59 32.0015 42.24 33.1774H51.9237C51.6996 32.029 51.1643 31.082 50.3166 30.3357C49.4696 29.5901 48.4295 29.2155 47.1971 29.2155C45.9647 29.2155 44.9183 29.5829 44.0571 30.3147ZM42.2397 37.3544C42.4639 38.5303 43.0726 39.5259 44.0667 40.3366C45.0609 41.1474 46.3144 41.5525 47.8275 41.5525C48.9199 41.5525 49.931 41.3336 50.8622 40.8967C51.1188 40.7757 51.4879 40.5562 51.729 40.3903C52.6786 39.7345 53.7017 39.8287 54.4101 40.7424C54.4101 40.7424 54.9524 41.3909 55.2762 42.0553C55.634 42.7886 55.4424 43.7508 54.6738 44.3514C54.2765 44.6623 53.7441 44.9927 53.1007 45.3296C52.4551 45.6665 51.6187 45.965 50.5892 46.223C49.5605 46.4809 48.4992 46.6106 47.4075 46.6106C44.3121 46.6106 41.6727 45.5085 39.4872 43.3059C37.3031 41.1032 36.2101 38.4586 36.2101 35.3727C36.2101 32.2883 37.289 29.6451 39.4455 27.4424C41.6027 25.2376 44.1862 24.1377 47.1968 24.1377C50.2074 24.1377 52.7146 25.1659 54.717 27.2265C56.72 29.285 57.7212 31.771 57.7212 34.8438L57.6823 35.2812C57.5855 36.3932 56.6727 37.3544 55.5782 37.3544H42.2397Z" fill="#0000B4"/>
<path fill-rule="evenodd" clip-rule="evenodd" d="M65.0358 46.4398H63.4429C62.2762 46.4398 61.3302 45.4742 61.3302 44.2835V17.8502C61.3302 16.6595 62.2762 15.6946 63.4429 15.6946H65.0358C66.2025 15.6946 67.1485 16.6595 67.1485 17.8502V44.2835C67.1485 45.4742 66.2025 46.4398 65.0358 46.4398Z" fill="#0000B4"/>
<path fill-rule="evenodd" clip-rule="evenodd" d="M77.4421 46.4398H75.526C74.4485 46.4398 73.5746 45.5479 73.5746 44.4481V26.9047C73.5746 25.8049 74.4485 24.913 75.526 24.913H77.4421C78.519 24.913 79.3936 25.8049 79.3936 26.9047V44.4481C79.3936 45.5479 78.519 46.4398 77.4421 46.4398ZM78.8884 21.1621C78.2725 21.7618 77.4318 22.0628 76.367 22.0628C75.3878 22.0628 74.6065 21.7618 74.0253 21.1621C73.4441 20.561 73.1535 19.7636 73.1535 18.7713C73.1535 17.7783 73.4476 16.9809 74.0359 16.3798C74.6242 15.7801 75.4012 15.4799 76.367 15.4799C77.4318 15.4799 78.2718 15.7801 78.8884 16.3798C79.505 16.9809 79.8125 17.7783 79.8125 18.7713C79.8125 19.7636 79.505 20.561 78.8884 21.1621Z" fill="#0000B4"/>
<path fill-rule="evenodd" clip-rule="evenodd" d="M113.349 46.4397H111.755C110.589 46.4397 109.642 45.4742 109.642 44.2834V27.0692C109.642 25.8785 110.589 24.9129 111.755 24.9129H113.349C114.515 24.9129 115.461 25.8785 115.461 27.0692V44.2834C115.461 45.4742 114.515 46.4397 113.349 46.4397ZM114.956 21.1621C114.34 21.7617 113.5 22.0627 112.436 22.0627C111.456 22.0627 110.675 21.7617 110.093 21.1621C109.512 20.5609 109.221 19.7635 109.221 18.7712C109.221 17.7782 109.516 16.9808 110.104 16.3797C110.692 15.78 111.47 15.4798 112.436 15.4798C113.5 15.4798 114.34 15.78 114.956 16.3797C115.573 16.9808 115.88 17.7782 115.88 18.7712C115.88 19.7635 115.573 20.5609 114.956 21.1621Z" fill="#0000B4"/>
<path fill-rule="evenodd" clip-rule="evenodd" d="M127.613 39.3102C128.635 40.4028 129.847 40.9498 131.248 40.9498C132.647 40.9498 133.859 40.4028 134.881 39.3102C135.904 38.2162 136.414 36.8645 136.414 35.2581C136.414 33.6503 135.904 32.2957 134.881 31.1945C133.859 30.0947 132.647 29.5441 131.248 29.5441C129.847 29.5441 128.635 30.0947 127.613 31.1945C126.591 32.2957 126.079 33.6503 126.079 35.2581C126.079 36.8645 126.591 38.2162 127.613 39.3102ZM139.093 43.0833C136.874 45.3212 134.258 46.4397 131.248 46.4397C128.236 46.4397 125.618 45.3212 123.39 43.0833C121.165 40.8477 120.05 38.2346 120.05 35.2469C120.05 32.26 121.165 29.6484 123.39 27.4112C125.618 25.1756 128.236 24.0563 131.248 24.0563C134.258 24.0563 136.874 25.1756 139.093 27.4112C141.313 29.6484 142.422 32.26 142.422 35.2469C142.422 38.2346 141.313 40.8477 139.093 43.0833Z" fill="#0000B4"/>
<path fill-rule="evenodd" clip-rule="evenodd" d="M106.492 11.5588C105.092 10.2165 103.282 9.66517 101.819 11.6973C97.4492 17.7686 94.5885 25.6808 92.7092 33.2415C91.2951 30.378 90.1178 27.3738 89.2255 24.5406C88.4987 22.2327 86.3938 22.297 84.7224 23.1204C83.1739 23.8817 81.996 25.2362 82.6663 27.3665C84.5562 33.3671 87.6983 40.0431 91.5602 44.9806C92.9142 46.7111 94.037 46.6353 95.6059 46.0905C97.0568 45.5868 97.6648 44.658 97.8996 43.2566C99.3144 34.8024 102.57 23.2575 107.464 16.1225C108.676 14.3559 107.695 12.7113 106.492 11.5588Z" fill="var(--fill-0, #96D300)"/>
</g>
</g>
</svg>
