<svg preserveAspectRatio="none" width="100%" height="100%" overflow="visible" style="display: block;" viewBox="0 0 16 16" fill="none" xmlns="http://www.w3.org/2000/svg">
<g id="Eyes">
<path id="Vector" d="M3.5 9.5C4.32843 9.5 5 8.82843 5 8C5 7.17157 4.32843 6.5 3.5 6.5C2.67157 6.5 2 7.17157 2 8C2 8.82843 2.67157 9.5 3.5 9.5Z" stroke="var(--stroke-0, #252547)" stroke-width="0.96" stroke-linecap="round" stroke-linejoin="round"/>
<path id="Vector_2" d="M9.5 9.5C10.3284 9.5 11 8.82843 11 8C11 7.17157 10.3284 6.5 9.5 6.5C8.67157 6.5 8 7.17157 8 8C8 8.82843 8.67157 9.5 9.5 9.5Z" stroke="var(--stroke-0, #252547)" stroke-width="0.96" stroke-linecap="round" stroke-linejoin="round"/>
<path id="Vector_3" d="M11 13.5C12.6569 13.5 14 11.0376 14 8C14 4.96243 12.6569 2.5 11 2.5C9.34315 2.5 8 4.96243 8 8C8 11.0376 9.34315 13.5 11 13.5Z" stroke="var(--stroke-0, #252547)" stroke-width="0.96" stroke-linecap="round" stroke-linejoin="round"/>
<path id="Vector_4" d="M5 13.5C6.65685 13.5 8 11.0376 8 8C8 4.96243 6.65685 2.5 5 2.5C3.34315 2.5 2 4.96243 2 8C2 11.0376 3.34315 13.5 5 13.5Z" stroke="var(--stroke-0, #252547)" stroke-width="0.96" stroke-linecap="round" stroke-linejoin="round"/>
</g>
</svg>
