<svg viewBox="0 0 20 20" fill="none" xmlns="http://www.w3.org/2000/svg">
<rect width="20" height="20" fill="white"/>
<path d="M5.36451 7.90478C5.3852 8.24453 6.09751 8.07323 6.20467 8.41153C6.31561 8.74986 6.04568 9.0113 6.35525 9.28118C6.45061 9.36274 6.5221 9.46174 6.58375 9.56161C6.72126 9.7852 6.81327 10.0162 6.97458 10.0342C7.2062 10.0575 6.88943 10.3917 7.14693 10.5026C7.37501 10.5981 7.45712 10.7242 7.52422 10.9374C7.53273 10.964 7.54087 10.9917 7.54886 11.0207C7.61579 11.2859 8.10404 11.8406 8.41981 11.8234C8.6234 11.8142 8.71787 11.9897 8.78889 12.1346L8.73548 12.1167C8.72185 12.1262 8.71196 12.1148 8.61529 12.1529C8.56681 12.1714 8.49907 12.2448 8.48874 12.298C8.47493 12.3512 8.48381 12.3749 8.48829 12.3887C8.51201 12.4322 8.52209 12.3977 8.52726 12.3817C8.53315 12.3596 8.53462 12.336 8.53263 12.3143C8.52698 12.2578 8.52935 12.2004 8.541 12.1537C8.54579 12.1338 8.56817 12.1131 8.59356 12.0986C8.59357 12.0985 8.59359 12.0985 8.59361 12.0985C8.62527 12.0804 8.66135 12.0713 8.67451 12.0847C8.71168 12.1241 8.76755 12.1595 8.85106 12.2276C8.87464 12.2517 8.90467 12.2613 8.9336 12.3469C8.95428 12.3716 8.93439 12.5646 8.79311 12.618C8.68498 12.6608 8.65016 12.6493 8.61238 12.6549C8.60259 12.6508 8.57191 12.6443 8.5631 12.6384C8.54538 12.6412 8.52589 12.6435 8.50762 12.6466C8.083 12.7003 8.20098 12.4487 7.78507 12.3107C7.3866 12.1695 7.03279 12.192 6.7703 11.7848C6.76143 11.7708 6.75265 11.7562 6.74396 11.7411C6.49614 11.2918 5.9201 11.7015 5.71277 10.906C5.65973 10.6854 5.58197 10.5597 5.48052 10.4791C5.22327 10.2726 4.79568 10.3679 4.43561 9.97805C4.13419 9.64956 3.97047 9.15875 3.84503 8.75578C3.76331 8.49501 3.69308 8.26474 3.60173 8.12728C3.36913 7.77861 3.02891 7.30913 2.86799 6.72262C2.76847 6.36093 2.5411 5.99701 2.37122 5.6032C2.26752 5.3633 2.18608 5.11587 2.16797 4.8619C2.11787 4.19282 2.0684 3.2717 2.09491 2.83547C2.12104 2.40022 2.12612 2.2953 1.93911 1.93558C1.9296 1.91707 1.92076 1.89816 1.91268 1.87903C1.82713 1.67278 1.80563 1.38777 1.91178 1.10772C1.97511 0.943508 2.10872 0.975077 2.1953 1.07282C2.32813 1.23572 2.31148 1.40587 2.49322 1.46211C2.67726 1.51788 2.80454 1.55848 2.87021 1.62339C2.93384 1.68548 2.93916 1.77065 2.8821 1.91478C2.76666 2.2075 3.21034 2.20897 3.20205 2.36233C3.19473 2.51493 2.94807 2.58527 3.34474 3.2419C3.74353 3.89497 3.91969 4.25352 4.05344 4.49685C4.10754 4.5946 4.13747 4.75176 4.17107 4.92856C4.22026 5.18947 4.28117 5.4978 4.42914 5.72042C4.6698 6.0943 5.00685 6.92565 5.30141 7.17686C5.57439 7.41343 5.37312 7.55071 5.36373 7.84957C5.36328 7.86745 5.36349 7.88585 5.36451 7.90478Z" fill="#081025"/>
<path d="M8.86092 11.4823C8.66321 11.6636 8.855 11.9781 8.89968 12.2743C8.91848 12.4066 8.91028 12.5317 8.82633 12.6424C8.55241 13.0001 8.19194 12.9001 8.04888 13.3842C7.90376 13.8706 7.44837 14.1971 7.47832 14.4634C7.5077 14.7307 7.09259 14.5348 7.03162 14.8578C6.96907 15.1819 6.82223 15.3193 6.55665 15.4815C6.29208 15.6456 5.7556 16.294 5.75226 16.647C5.74972 17.0018 5.29731 17.1278 5.12415 17.2637C5.07019 17.3061 5.01611 17.3322 4.96716 17.3477C4.94642 17.3542 4.91719 17.345 4.89231 17.3296C4.8923 17.3296 4.89228 17.3296 4.89227 17.3296C4.86129 17.3103 4.83707 17.2814 4.84434 17.2609C4.87959 17.1618 4.91061 17.0001 4.89373 16.7763C4.86167 16.3594 5.11366 16.4711 5.24233 16.0168C5.36994 15.5618 5.29042 15.2024 5.69586 14.8258C6.10098 14.4432 5.56034 14.0117 6.24896 13.5388C6.93657 13.0535 6.33185 12.6583 6.55922 11.9575C6.62461 11.7534 6.7317 11.5526 6.85541 11.356C7.15818 10.8762 7.55827 10.4271 7.66049 10.1225C7.80464 9.69381 7.95644 9.10226 8.28084 8.54121C8.60594 7.97943 8.66947 7.15414 9.07899 6.55012C9.48939 5.94585 10.0388 5.07821 10.3348 4.6884C10.4017 4.60133 10.4586 4.52481 10.5043 4.46159C10.6622 4.23834 10.7164 4.1022 10.7732 3.75413C10.8155 3.49463 10.9824 3.17893 11.2599 2.96075C11.3995 2.85135 11.5083 2.92937 11.5139 3.09245C11.5215 3.33266 11.4022 3.48153 11.5139 3.64546C11.7379 3.97095 11.8194 4.10797 11.5438 4.31174C11.3198 4.4793 11.5096 4.68937 11.5335 4.84143C11.5397 4.87582 11.5366 4.90722 11.5166 4.93422C11.4114 5.07661 11.1779 4.98426 11.0603 5.85827C10.943 6.72991 10.8205 7.19045 10.7479 7.51182C10.6752 7.83359 10.2265 8.39061 10.1046 8.91453C9.98416 9.43954 9.50978 10.4179 9.45764 10.8725C9.40636 11.3278 9.14562 11.2196 8.86092 11.4823Z" fill="#081025"/>
<path d="M11.3642 9.16813C11.578 9.03036 11.6922 8.83954 11.9861 8.6055C12.4157 8.20459 13.2817 7.98446 13.8355 8.31662C14.2118 8.53354 14.326 8.73572 14.4399 8.90511C14.8975 9.3392 14.905 9.72187 15.1342 10.1036C15.319 10.4446 15.4078 10.792 15.4853 11.0985C15.5732 11.449 15.6389 11.7419 15.7742 11.8858C16.028 12.1558 15.6056 12.3381 15.8557 12.7578C16.1054 13.1776 16.1405 13.4711 16.1312 13.9136C16.1225 14.3421 16.3877 15.5334 16.6979 15.9517C16.7082 15.9658 16.7184 15.979 16.7287 15.9911C17.0516 16.3657 16.9211 16.9803 16.9765 17.2676C16.9833 17.2973 16.9815 17.3115 16.9854 17.3298C17.021 17.3712 16.9228 17.3787 16.9661 17.3955C16.9851 17.3971 17.0172 17.4025 17.0409 17.4198C17.0409 17.4198 17.0409 17.4199 17.0409 17.4199C17.0689 17.4408 17.0949 17.4783 17.0498 17.5206C16.9795 17.5938 16.845 17.5211 16.8158 17.4926C16.6579 17.3448 16.5656 17.1967 16.3894 17.0264C16.0642 16.6997 16.1455 16.5399 16.0241 16.1806C15.992 16.085 15.9442 15.9713 15.8707 15.8376C15.526 15.2093 15.1525 14.8865 15.0452 14.0497C14.9363 13.2128 14.2302 13.2508 14.2161 12.0298C14.2135 11.8524 14.1956 11.7037 14.1657 11.5773C14.0804 11.2194 13.9016 11.024 13.6949 10.843C13.592 10.7542 13.4796 10.6639 13.377 10.5919C13.2808 10.5089 13.1595 10.5179 13.3423 10.6939C13.301 10.6757 13.2608 10.6571 13.2221 10.6386C13.0262 10.5433 12.8727 10.4679 12.7997 10.433C12.7191 10.4002 12.7821 10.3797 12.7705 10.3407C12.8427 10.2507 12.6148 10.3691 12.4918 10.4847C12.3509 10.607 12.2219 10.7562 12.128 10.8956C12.0828 10.9629 12.0456 11.0275 12.0178 11.0875C11.9068 11.3279 11.8029 11.615 11.7336 11.8993C11.6476 12.2442 11.6045 12.5489 11.5869 12.9317C11.5845 13.0139 11.581 13.0951 11.5761 13.1779C11.561 13.4301 11.5654 13.6955 11.5739 13.9784C11.578 14.1191 11.5833 14.2651 11.5853 14.4214C11.5861 14.5002 11.5864 14.5814 11.5827 14.6752C11.5806 14.7237 11.5779 14.7739 11.5702 14.8406C11.5661 14.8746 11.5615 14.9105 11.5499 14.9668C11.5308 15.0297 11.5459 15.0668 11.4259 15.2907C11.3294 15.472 11.239 15.6473 11.1675 15.7989C11.1327 15.872 11.1018 15.9456 11.0926 15.9684C11.0874 15.9749 11.0929 15.9817 11.099 15.8826C11.0971 15.8284 11.1127 15.7423 11.0331 15.5403C10.9706 15.332 10.6334 15.0573 10.4338 15.0362C10.2487 15.004 10.2904 15.0258 10.2716 15.0251C10.2667 15.0286 10.275 15.0315 10.2865 15.0336C10.3108 15.0376 10.3504 15.0384 10.3947 15.0372C10.6882 15.0284 11.1541 14.8742 11.586 14.6779C11.9188 14.5313 12.2328 14.349 12.5065 14.1658C12.7391 14.0109 12.9393 13.8608 13.0954 13.7455C13.3642 13.5458 13.5347 13.4058 13.6792 13.258C13.8411 13.0913 13.9696 12.9117 14.1596 12.5972C14.3658 12.2559 14.7386 11.8538 15.168 11.6013C15.384 11.4744 15.4539 11.5953 15.359 11.8183C15.2204 12.1446 14.9997 12.3296 15.018 12.5685C15.0543 13.0459 15.0579 13.243 14.6294 13.478C14.4642 13.5682 14.3914 13.6876 14.3519 13.8109C14.2884 14.008 14.3087 14.2168 14.176 14.3245C13.989 14.468 13.8568 14.3838 13.2994 15.0049C13.1866 15.1261 13.0532 15.2739 12.885 15.4507C12.7204 15.6235 12.5555 15.776 12.3965 15.9097C12.0086 16.2381 11.651 16.478 11.305 16.6529C11.1301 16.7407 10.9604 16.8116 10.7786 16.8667C10.6874 16.894 10.5932 16.9175 10.4875 16.9346C10.3577 16.945 10.3334 16.9855 9.98301 16.928C9.84627 16.897 9.68574 16.8306 9.54139 16.7127C9.33705 16.5507 9.21896 16.3092 9.17984 16.1566C9.13592 15.9929 9.13568 15.8837 9.13798 15.7913C9.14628 15.6164 9.17528 15.5157 9.20157 15.4249C9.2562 15.2494 9.31886 15.1253 9.38509 15.0035C9.51763 14.7642 9.67295 14.5471 9.82361 14.335C9.70427 14.5706 9.74611 14.5452 9.73509 14.5714C9.73467 14.584 9.73763 14.5788 9.74022 14.5707C9.74576 14.5529 9.75163 14.5196 9.75641 14.4843C9.76611 14.4124 9.77262 14.3269 9.77597 14.2421C9.78264 14.0704 9.77719 13.893 9.75705 13.7249C9.73347 13.5282 9.71586 13.2786 9.69904 13.0034C9.66179 12.4901 9.74743 11.8449 9.89096 11.352C10.0305 10.8498 10.2048 10.4537 10.2947 10.1802C10.3319 10.0685 10.3716 9.97721 10.4123 9.90146C10.66 9.46685 10.8831 9.50919 11.3642 9.16813Z" fill="#081025"/>
</svg>
