<svg preserveAspectRatio="none" width="100%" height="100%" overflow="visible" style="display: block;" viewBox="0 0 140 39.3503" fill="none" xmlns="http://www.w3.org/2000/svg">
<g id="Frame 11197">
<g id="JGGL">
<path d="M49.842 39.1288C48.6533 39.1288 47.4232 39.0403 46.1515 38.8631C44.9076 38.7154 43.8571 38.553 43.0001 38.3759V28.4101C43.5254 28.5873 44.2856 28.7645 45.2808 28.9416C46.3036 29.0893 47.1467 29.1631 47.8102 29.1631C48.9989 29.1631 49.8697 28.8678 50.4226 28.2772C51.0031 27.6571 51.2934 26.6237 51.2934 25.1768V16.5398H44.4514V7.68135H61.4526V26.727C61.4526 30.92 60.485 34.0352 58.5499 36.0727C56.6425 38.1101 53.7399 39.1288 49.842 39.1288Z" fill="var(--fill-0, black)"/>
<path d="M80.1075 39.3503C76.7072 39.3503 73.7908 38.7154 71.3581 37.4457C68.9531 36.176 67.1147 34.3305 65.8431 31.9092C64.5715 29.4879 63.9357 26.5794 63.9357 23.1836C63.9357 19.8765 64.5991 17.0122 65.926 14.5909C67.2806 12.1401 69.2157 10.2651 71.7313 8.96583C74.2746 7.66659 77.2739 7.01697 80.7295 7.01697C82.1946 7.01697 83.6044 7.12032 84.959 7.32701C86.3136 7.53371 87.599 7.81423 88.8153 8.16857V17.8243C87.7649 17.4995 86.59 17.2485 85.2907 17.0713C83.9915 16.8646 82.8166 16.7613 81.7661 16.7613C80.1904 16.7613 78.8358 17.027 77.7024 17.5585C76.5967 18.09 75.7535 18.8578 75.173 19.8617C74.5925 20.8657 74.3022 22.0468 74.3022 23.4051C74.3022 24.852 74.5372 26.0774 75.0071 27.0814C75.5047 28.0558 76.2235 28.794 77.1634 29.296C78.1309 29.7979 79.3196 30.0489 80.7295 30.0489C81.2823 30.0489 81.8352 29.9751 82.3881 29.8275C82.9686 29.6798 83.4662 29.4731 83.8809 29.2074L81.7661 31.732V26.727H77.8268V20.3046H89.852V37.3571C88.4422 38.0363 86.8941 38.5383 85.2078 38.8631C83.5492 39.1879 81.849 39.3503 80.1075 39.3503Z" fill="var(--fill-0, black)"/>
<path d="M108.291 39.3503C104.891 39.3503 101.975 38.7154 99.5421 37.4457C97.1371 36.176 95.2988 34.3305 94.0271 31.9092C92.7555 29.4879 92.1197 26.5794 92.1197 23.1836C92.1197 19.8765 92.7831 17.0122 94.1101 14.5909C95.4646 12.1401 97.3997 10.2651 99.9153 8.96583C102.459 7.66659 105.458 7.01697 108.913 7.01697C110.379 7.01697 111.788 7.12032 113.143 7.32701C114.498 7.53371 115.783 7.81423 116.999 8.16857V17.8243C115.949 17.4995 114.774 17.2485 113.475 17.0713C112.175 16.8646 111.001 16.7613 109.95 16.7613C108.374 16.7613 107.02 17.027 105.886 17.5585C104.781 18.09 103.938 18.8578 103.357 19.8617C102.776 20.8657 102.486 22.0468 102.486 23.4051C102.486 24.852 102.721 26.0774 103.191 27.0814C103.689 28.0558 104.407 28.794 105.347 29.296C106.315 29.7979 107.504 30.0489 108.913 30.0489C109.466 30.0489 110.019 29.9751 110.572 29.8275C111.153 29.6798 111.65 29.4731 112.065 29.2074L109.95 31.732V26.727H106.011V20.3046H118.036V37.3571C116.626 38.0363 115.078 38.5383 113.392 38.8631C111.733 39.1879 110.033 39.3503 108.291 39.3503Z" fill="var(--fill-0, black)"/>
<path d="M121.34 38.6859V7.68135H131.5V28.9416H140V38.6859H121.34Z" fill="var(--fill-0, black)"/>
</g>
<path id="logo" fill-rule="evenodd" clip-rule="evenodd" d="M20.0406 2.17798C20.0406 3.38084 19.0363 4.35595 17.7974 4.35595C16.5585 4.35595 15.5542 3.38084 15.5542 2.17798C15.5542 0.975114 16.5585 3.07868e-07 17.7974 3.30903e-07C19.0363 3.53937e-07 20.0406 0.975114 20.0406 2.17798ZM7.4062 38.452C7.89855 38.9409 8.55272 39.2007 9.22066 39.2007L9.2241 39.199C9.55635 39.199 9.89032 39.1357 10.2105 39.0041C11.1746 38.6075 11.7977 37.681 11.7977 36.6451L11.7977 25.8909L14.1872 37.028L14.1992 37.0793C14.5022 38.3374 15.7055 39.1734 17.0001 39.0212C18.2912 38.8708 19.2656 37.7853 19.2707 36.4963L19.3396 24.1199L22.3815 37.1032L22.3883 37.1288C22.7034 38.4024 23.8843 39.211 25.1944 39.0537C26.5062 38.8947 27.4564 37.8297 27.4564 36.5186L27.4151 25.8259L29.9199 37.0793C30.2074 38.3511 31.4072 39.2007 32.7121 39.0571C34.017 38.9135 35 37.8229 35 36.5203L35 3.58376C35 2.40483 34.0443 1.44911 32.8653 1.44911C31.6864 1.44911 30.7307 2.40483 30.7307 3.58377L30.7307 21.0839L28.164 9.55193C27.8765 8.28009 26.6766 7.43049 25.3717 7.57409C24.0668 7.71768 23.0838 8.80831 23.0838 10.1109L23.1286 21.5865L20.2244 9.19636L20.2175 9.17072C19.9025 7.89717 18.7216 7.0886 17.4115 7.24587C16.1032 7.40314 15.1546 8.46471 15.1495 9.77074L15.0875 20.889L12.6103 9.34508L12.5982 9.2938C12.2952 8.03564 11.0919 7.19972 9.79736 7.35186C8.50279 7.50229 7.52671 8.59292 7.52671 9.88698L7.52671 32.5783L3.62469 28.7035C2.79551 27.8802 1.45727 27.8802 0.628089 28.7035C-0.209364 29.5351 -0.209363 30.8896 0.62809 31.7212L7.4062 38.452Z" fill="url(#paint0_linear_0_14)"/>
</g>
<defs>
<linearGradient id="paint0_linear_0_14" x1="5.90219e-07" y1="7.49425" x2="34.9842" y2="8.13145" gradientUnits="userSpaceOnUse">
<stop offset="0.231267" stop-color="#E64036"/>
<stop offset="1" stop-color="#FF8C01"/>
</linearGradient>
</defs>
</svg>
