<svg preserveAspectRatio="none" width="100%" height="100%" overflow="visible" style="display: block;" viewBox="0 0 81.9072 21.0619" fill="none" xmlns="http://www.w3.org/2000/svg">
<g id="Logo MC 3 2 [Vectorized]">
<path id="Vector" d="M10.2832 7.22145C10.2798 6.94981 10.2807 6.64914 10.2741 6.38102C10.2459 5.23404 10.3967 4.78333 11.6332 4.77739L15.0983 4.77558C15.6593 4.77558 16.2898 4.74339 16.8428 4.80247C17.5747 4.88065 17.6522 5.52416 17.6532 6.0892L17.6516 11.2832C17.6526 12.1237 17.6697 12.9734 17.6299 13.8115C17.6228 13.9607 17.4938 14.2078 17.3846 14.3061C16.8598 14.7787 15.8802 14.5604 15.2112 14.6031C15.212 14.9215 15.2146 15.24 15.2188 15.5584C15.2315 16.4662 15.1167 17.0485 14.0249 17.049C12.8279 17.0497 11.6285 17.0543 10.4311 17.0501C9.83247 17.0111 9.12737 17.1173 8.5404 17.0083C7.90513 16.8904 7.80943 16.2284 7.80818 15.7382L7.81025 10.5689C7.80927 9.7848 7.77768 8.81338 7.83508 8.04266C7.91323 6.99312 9.531 7.21824 10.2832 7.22145Z" fill="var(--fill-0, #D5D5DB)"/>
<path id="Vector_2" d="M10.2832 7.22145C10.2798 6.94981 10.2807 6.64914 10.2741 6.38102C10.2459 5.23404 10.3967 4.78333 11.6332 4.77739L15.0984 4.77558C15.6593 4.77558 16.2898 4.74339 16.8428 4.80247C17.5747 4.88065 17.6523 5.52416 17.6532 6.0892L17.6516 11.2832C17.6526 12.1237 17.6697 12.9734 17.6299 13.8115C17.6228 13.9607 17.4938 14.2078 17.3846 14.3061C16.8598 14.7787 15.8802 14.5604 15.2112 14.6031C15.1237 12.415 15.255 10.18 15.1645 7.98992C15.1398 7.82717 15.0196 7.61967 14.9032 7.51214C14.458 7.10084 13.4657 7.22068 12.895 7.22082L10.2832 7.22145Z" fill="var(--fill-0, #E6E6ED)"/>
<path id="Vector_3" d="M69.0621 7.35389L70.7171 7.35242C71.9684 7.35252 73.1346 7.33618 74.1284 8.27202C74.8219 8.92507 75.1294 9.96032 75.1335 10.8928C75.1383 11.9008 74.8541 12.8057 74.1431 13.5353C74.1373 13.5414 74.1314 13.5474 74.1256 13.5534C73.1874 14.4897 71.908 14.4595 70.7007 14.4566L69.0525 14.4585C69.0418 14.1689 69.0408 13.8636 69.0453 13.5735C69.0775 11.5087 68.9945 9.41573 69.0621 7.35389ZM70.6194 12.9474C71.4298 12.9514 72.3211 13.0348 72.9443 12.4202C72.9567 12.408 72.9687 12.3957 72.981 12.3833C73.6909 11.6446 73.6779 10.0984 72.9351 9.38018C72.3149 8.78058 71.4175 8.86421 70.6208 8.87343C70.6342 10.0675 70.666 11.7709 70.6194 12.9474Z" fill="var(--fill-0, #D5D5DB)"/>
<path id="Vector_4" d="M24.6797 7.35995C25.1365 7.34765 25.6205 7.35629 26.0794 7.35724C26.5603 8.89284 27.1766 10.5082 27.6957 12.0495L29.3329 7.35899C29.7863 7.34776 30.2723 7.35629 30.7281 7.35611C30.8809 7.93242 31.0474 9.10302 31.1624 9.74473L31.9982 14.4553L30.4212 14.4568C30.2337 13.4905 30.1059 12.3802 29.9442 11.3922C29.8744 11.0279 29.7934 10.4262 29.7589 10.0643C29.6012 10.7452 29.3378 11.4509 29.1069 12.1131L28.3222 14.3758L27.0759 14.3767C26.6382 12.9351 26.0285 11.4968 25.6148 10.0215C25.6046 10.5264 25.47 11.3051 25.3928 11.8265C25.2683 12.7041 25.1337 13.5803 24.989 14.4548L23.4061 14.457L24.1778 10.0619C24.27 9.52103 24.528 7.82129 24.6797 7.35995Z" fill="var(--fill-0, #D5D5DB)"/>
<path id="Vector_5" d="M62.856 7.3537C63.8295 7.35257 65.2954 7.27229 66.2045 7.44836C68.3953 7.87264 68.8951 10.7811 66.9336 11.9934C67.369 12.8068 67.7923 13.6267 68.203 14.4528L67.1753 14.4552L66.5061 14.4529C66.2487 14.0477 65.5956 12.7668 65.3951 12.3243L64.4041 12.3285L64.4061 14.4522L62.8563 14.4582C62.7572 12.9254 62.8858 11.2618 62.8378 9.71389C62.8145 8.96259 62.8251 8.10052 62.856 7.3537ZM64.4082 10.8197C65.0389 10.8259 65.7372 10.9169 66.2525 10.5484C66.3892 10.3846 66.5144 10.2162 66.5301 9.99338C66.6237 8.67142 65.27 8.86317 64.4041 8.87436L64.4082 10.8197Z" fill="var(--fill-0, #D5D5DB)"/>
<path id="Vector_6" d="M42.054 7.35352C42.5277 7.3525 43.0124 7.34602 43.4848 7.36431C43.7731 7.68342 44.4423 8.64881 44.7289 9.04998C45.3236 9.88221 46.0678 10.8156 46.618 11.6598C46.6167 10.253 46.5917 8.75292 46.6297 7.35411L48.222 7.35572C48.1668 9.628 48.2189 12.1579 48.2207 14.4524C47.7366 14.4576 47.2526 14.4574 46.7685 14.452C46.4933 14.1163 46.1995 13.6748 45.9307 13.3191C45.1563 12.2937 44.4176 11.2125 43.6353 10.1945L43.637 14.4561L42.0536 14.459C41.9988 13.4495 42.0382 12.0902 42.0382 11.0615C42.0378 9.90273 42.0001 8.49621 42.054 7.35352Z" fill="var(--fill-0, #D5D5DB)"/>
<path id="Vector_7" d="M58.248 7.35594L59.9312 7.3556C60.1002 7.7093 60.4046 8.69517 60.541 9.10117L61.7412 12.6926C61.9184 13.2207 62.133 13.9541 62.3397 14.4513C61.807 14.4563 61.274 14.4569 60.7409 14.453C60.6288 14.1081 60.4197 13.5204 60.348 13.1849L59.8907 13.1841C59.1712 13.1892 58.4513 13.1863 57.7318 13.1756C57.6241 13.5723 57.4448 14.0549 57.3088 14.4506C56.8261 14.4723 56.2104 14.4541 55.7178 14.4539L57.4054 9.70131C57.6673 8.96788 57.956 8.05968 58.248 7.35594ZM58.2446 11.711L59.1109 11.7121L59.8726 11.7135C59.7934 11.4636 59.1376 9.36168 59.0735 9.30141C58.8041 10.107 58.5278 10.9102 58.2446 11.711Z" fill="var(--fill-0, #D5D5DB)"/>
<path id="Vector_8" d="M34.7921 7.3572C35.31 7.33891 35.9739 7.35648 36.5015 7.35686L38.8765 14.4535L37.2893 14.4568C37.1649 14.0664 36.9931 13.5715 36.8984 13.1818L36.3229 13.1841C35.645 13.1867 34.9671 13.1847 34.2893 13.1779C34.1282 13.596 34.032 14.0337 33.8382 14.4526C33.323 14.4627 32.7792 14.4543 32.2616 14.4548C32.5537 13.727 32.8386 12.8435 33.1045 12.093L34.7921 7.3572ZM34.7947 11.713L35.5688 11.7122L36.4244 11.7135L35.9538 10.2507C35.8791 10.0146 35.7276 9.49589 35.6244 9.29945C35.3543 10.1062 35.0777 10.9107 34.7947 11.713Z" fill="var(--fill-0, #D5D5DB)"/>
<path id="Vector_9" d="M52.1886 7.26884C52.2565 7.25328 52.4176 7.25273 52.492 7.24975C54.0634 7.18693 55.2937 7.88109 55.882 9.3609C55.4473 9.54737 54.8663 9.72799 54.4724 9.9258C54.253 9.59217 54.0607 9.30884 53.7258 9.0787C52.877 8.49555 51.551 8.7087 50.9751 9.57734C50.3601 10.4835 50.4715 12.0996 51.4516 12.7254C52.4258 13.3474 53.6298 13.1265 54.279 12.1702C54.4018 11.98 54.4138 11.9035 54.653 11.9864C55.0671 12.1297 55.4723 12.2969 55.8793 12.4588C55.4627 13.6499 54.5433 14.3296 53.2554 14.5392C49.6934 15.1189 47.8011 11.3617 49.7321 8.57144C50.2936 7.75986 51.19 7.40348 52.1886 7.26884Z" fill="var(--fill-0, #D5D5DB)"/>
<path id="Vector_10" d="M39.4114 7.354L40.9824 7.35568C40.945 8.10042 40.9728 9.08378 40.9728 9.84293L40.9783 14.4356C40.8974 14.4732 39.5768 14.4593 39.4032 14.46C39.3435 13.2593 39.4022 11.7233 39.3918 10.4952C39.3852 9.70577 39.3453 8.08203 39.4114 7.354Z" fill="var(--fill-0, #D5D5DB)"/>
</g>
</svg>
