<svg preserveAspectRatio="none" width="100%" height="100%" overflow="visible" style="display: block;" viewBox="0 0 58.5052 21.0619" fill="none" xmlns="http://www.w3.org/2000/svg">
<g id="Logo">
<g id="Vector">
<path fill-rule="evenodd" clip-rule="evenodd" d="M10.3307 14.6619C10.7032 14.248 10.8899 13.7203 10.8899 13.078C10.8899 12.4361 10.7032 11.9095 10.3307 11.4986C9.9577 11.0874 9.50757 10.8816 8.97954 10.8816C8.45125 10.8816 8.00086 11.0874 7.6281 11.4986C7.25534 11.9095 7.06896 12.4361 7.06896 13.078C7.06896 13.7203 7.25534 14.248 7.6281 14.6619C8.00086 15.0758 8.45125 15.2828 8.97954 15.2828C9.50757 15.2828 9.9577 15.0758 10.3307 14.6619ZM9.82987 9.20988C10.2154 9.40141 10.4886 9.58705 10.6491 9.76733L10.8898 10.062V6.46121C10.8898 6.01922 11.2396 5.6608 11.6709 5.6608H12.2523C12.6836 5.6608 13.0333 6.01922 13.0333 6.46121V16.2729C13.0333 16.7152 12.6836 17.0734 12.2523 17.0734H11.6709C11.2396 17.0734 10.8898 16.7152 10.8898 16.2729V16.0943C10.8692 16.1261 10.837 16.1677 10.7929 16.2175C10.749 16.2681 10.6556 16.3584 10.5132 16.488C10.371 16.6185 10.2167 16.7348 10.0513 16.8384C9.88554 16.9416 9.67067 17.0332 9.40666 17.113C9.14264 17.1928 8.86817 17.2325 8.58298 17.2325C7.57371 17.2325 6.69724 16.8307 5.9546 16.0268C5.2117 15.2229 4.83999 14.2398 4.83999 13.0777C4.83999 11.9162 5.2117 10.9334 5.9546 10.1295C6.69724 9.3256 7.57371 8.92379 8.58298 8.92379C9.02867 8.92379 9.44378 9.01915 9.82987 9.20988Z" fill="#D5D5DB"/>
<path fill-rule="evenodd" clip-rule="evenodd" d="M17.2988 11.2076C16.9802 11.4782 16.7564 11.8313 16.627 12.266H20.2072C20.1243 11.8414 19.9264 11.4913 19.613 11.2154C19.2999 10.9398 18.9154 10.8013 18.4597 10.8013C18.0041 10.8013 17.6172 10.9371 17.2988 11.2076ZM16.6269 13.8103C16.7098 14.245 16.9349 14.6131 17.3024 14.9129C17.6699 15.2126 18.1334 15.3623 18.6928 15.3623C19.0967 15.3623 19.4705 15.2814 19.8147 15.1199C19.9096 15.0752 20.0461 14.994 20.1352 14.9327C20.4863 14.6902 20.8645 14.7251 21.1264 15.0629C21.1264 15.0629 21.3269 15.3026 21.4467 15.5483C21.5789 15.8193 21.5081 16.1751 21.2239 16.3971C21.077 16.5121 20.8802 16.6342 20.6423 16.7588C20.4037 16.8833 20.0944 16.9937 19.7138 17.0891C19.3335 17.1844 18.9411 17.2324 18.5375 17.2324C17.3931 17.2324 16.4173 16.8249 15.6093 16.0106C14.8018 15.1963 14.3977 14.2185 14.3977 13.0776C14.3977 11.9373 14.7966 10.9601 15.5939 10.1457C16.3914 9.3306 17.3466 8.92397 18.4596 8.92397C19.5727 8.92397 20.4996 9.30408 21.2399 10.0659C21.9804 10.827 22.3506 11.7461 22.3506 12.8821L22.3362 13.0438C22.3004 13.4549 21.9629 13.8103 21.5583 13.8103H16.6269Z" fill="#D5D5DB"/>
<path fill-rule="evenodd" clip-rule="evenodd" d="M25.0549 17.1692H24.4659C24.0346 17.1692 23.6849 16.8123 23.6849 16.372V6.59941C23.6849 6.15919 24.0346 5.80248 24.4659 5.80248H25.0549C25.4862 5.80248 25.8359 6.15919 25.8359 6.59941V16.372C25.8359 16.8123 25.4862 17.1692 25.0549 17.1692Z" fill="#D5D5DB"/>
<path fill-rule="evenodd" clip-rule="evenodd" d="M29.6416 17.1692H28.9332C28.5348 17.1692 28.2117 16.8395 28.2117 16.4329V9.94696C28.2117 9.54035 28.5348 9.21059 28.9332 9.21059H29.6416C30.0397 9.21059 30.3631 9.54035 30.3631 9.94696V16.4329C30.3631 16.8395 30.0397 17.1692 29.6416 17.1692ZM30.1763 7.82387C29.9486 8.04559 29.6378 8.15684 29.2441 8.15684C28.8821 8.15684 28.5932 8.04559 28.3783 7.82387C28.1635 7.60163 28.056 7.30681 28.056 6.93996C28.056 6.57285 28.1648 6.27803 28.3823 6.05579C28.5997 5.83408 28.887 5.72309 29.2441 5.72309C29.6378 5.72309 29.9483 5.83408 30.1763 6.05579C30.4042 6.27803 30.5179 6.57285 30.5179 6.93996C30.5179 7.30681 30.4042 7.60163 30.1763 7.82387Z" fill="#D5D5DB"/>
<path fill-rule="evenodd" clip-rule="evenodd" d="M42.9166 17.1692H42.3274C41.8961 17.1692 41.5463 16.8122 41.5463 16.372V10.0078C41.5463 9.56753 41.8961 9.21055 42.3274 9.21055H42.9166C43.3476 9.21055 43.6974 9.56753 43.6974 10.0078V16.372C43.6974 16.8122 43.3476 17.1692 42.9166 17.1692ZM43.5109 7.82384C43.2832 8.04555 42.9724 8.15681 42.579 8.15681C42.2167 8.15681 41.9281 8.04555 41.713 7.82384C41.4981 7.6016 41.3907 7.30678 41.3907 6.93993C41.3907 6.57281 41.4994 6.278 41.7169 6.05575C41.9344 5.83404 42.2219 5.72305 42.579 5.72305C42.9724 5.72305 43.2829 5.83404 43.5109 6.05575C43.7388 6.278 43.8525 6.57281 43.8525 6.93993C43.8525 7.30678 43.7388 7.6016 43.5109 7.82384Z" fill="#D5D5DB"/>
<path fill-rule="evenodd" clip-rule="evenodd" d="M48.1902 14.5334C48.5682 14.9373 49.0159 15.1395 49.534 15.1395C50.0513 15.1395 50.4994 14.9373 50.8774 14.5334C51.2554 14.1289 51.4441 13.6292 51.4441 13.0353C51.4441 12.4408 51.2554 11.9401 50.8774 11.5329C50.4994 11.1263 50.0513 10.9227 49.534 10.9227C49.0159 10.9227 48.5682 11.1263 48.1902 11.5329C47.8124 11.9401 47.6232 12.4408 47.6232 13.0353C47.6232 13.6292 47.8124 14.1289 48.1902 14.5334ZM52.4343 15.9283C51.614 16.7557 50.6468 17.1692 49.534 17.1692C48.4205 17.1692 47.4525 16.7557 46.6291 15.9283C45.8062 15.1018 45.3942 14.1357 45.3942 13.0311C45.3942 11.9268 45.8062 10.9613 46.6291 10.1342C47.4525 9.30767 48.4205 8.89386 49.534 8.89386C50.6468 8.89386 51.614 9.30767 52.4343 10.1342C53.2551 10.9613 53.6652 11.9268 53.6652 13.0311C53.6652 14.1357 53.2551 15.1018 52.4343 15.9283Z" fill="#D5D5DB"/>
<path fill-rule="evenodd" clip-rule="evenodd" d="M40.3817 4.27343C39.8638 3.77718 39.1949 3.57335 38.6541 4.32466C37.0384 6.56925 35.9807 9.49445 35.2859 12.2897C34.7631 11.2311 34.3279 10.1204 33.998 9.0729C33.7293 8.21968 32.9511 8.24342 32.3331 8.54784C31.7607 8.82932 31.3252 9.3301 31.573 10.1177C32.2717 12.3361 33.4334 14.8043 34.8611 16.6298C35.3617 17.2695 35.7768 17.2415 36.3569 17.0401C36.8933 16.8539 37.1181 16.5105 37.2049 15.9924C37.7279 12.8668 38.9314 8.59853 40.7411 5.96068C41.1891 5.30755 40.8263 4.69951 40.3817 4.27343Z" fill="var(--fill-0, #D5D5DB)"/>
</g>
</g>
</svg>
