<svg preserveAspectRatio="none" width="100%" height="100%" overflow="visible" style="display: block;" viewBox="0 0 74.1065 21.0619" fill="none" xmlns="http://www.w3.org/2000/svg">
<g id="Frame 1">
<g id="vortex">
<path d="M16.8084 7.80072L12.0171 16.3815H10.2203L5.46046 7.80072H7.30451L11.1187 14.7589L14.9644 7.80072H16.8084Z" fill="var(--fill-0, #D5D5DB)"/>
<path d="M28.0763 12.0911C28.0763 12.6839 27.9659 13.2404 27.7453 13.7604C27.5246 14.2701 27.2147 14.7225 26.8154 15.1178C26.4266 15.513 25.9695 15.825 25.4442 16.0538C24.9293 16.2723 24.3724 16.3815 23.7735 16.3815H21.3463C20.7474 16.3815 20.1852 16.2723 19.6598 16.0538C19.145 15.825 18.6879 15.513 18.2886 15.1178C17.8999 14.7225 17.5951 14.2701 17.3745 13.7604C17.1538 13.2404 17.0435 12.6839 17.0435 12.0911C17.0435 11.4982 17.1538 10.947 17.3745 10.4373C17.5951 9.9173 17.8999 9.45966 18.2886 9.06443C18.6879 8.66919 19.145 8.36237 19.6598 8.14395C20.1852 7.91513 20.7474 7.80072 21.3463 7.80072H23.7735C24.3724 7.80072 24.9293 7.91513 25.4442 8.14395C25.9695 8.36237 26.4266 8.66919 26.8154 9.06443C27.2147 9.45966 27.5246 9.9173 27.7453 10.4373C27.9659 10.947 28.0763 11.4982 28.0763 12.0911ZM26.5002 12.0911C26.5002 11.5918 26.3793 11.1394 26.1377 10.7338C25.896 10.3177 25.565 9.98491 25.1447 9.73529C24.7349 9.48566 24.2778 9.36085 23.7735 9.36085H21.3463C20.8419 9.36085 20.3849 9.48566 19.9751 9.73529C19.5653 9.98491 19.2343 10.3177 18.9821 10.7338C18.7405 11.1394 18.6196 11.5918 18.6196 12.0911C18.6196 12.5903 18.7405 13.048 18.9821 13.464C19.2343 13.8697 19.5653 14.1973 19.9751 14.4469C20.3849 14.6965 20.8419 14.8213 21.3463 14.8213H23.7735C24.2778 14.8213 24.7349 14.6965 25.1447 14.4469C25.565 14.1973 25.896 13.8697 26.1377 13.464C26.3793 13.048 26.5002 12.5903 26.5002 12.0911Z" fill="var(--fill-0, #D5D5DB)"/>
<path d="M38.4063 9.36085H32.4959C32.1702 9.36085 31.8917 9.47526 31.6606 9.70408C31.4294 9.9329 31.3138 10.2085 31.3138 10.531V16.3815H29.7377V10.531C29.7377 10.0213 29.8585 9.56367 30.1002 9.15803C30.3524 8.742 30.6886 8.41437 31.1089 8.17515C31.5292 7.92553 31.9916 7.80072 32.4959 7.80072H38.3741L38.4063 9.36085Z" fill="var(--fill-0, #D5D5DB)"/>
<path d="M42.3143 16.3815H40.7382V9.36085H38.3741V7.80072H40.7382V4.68044H42.3143V7.80072H47.8307V9.36085H42.3143V16.3815Z" fill="var(--fill-0, #D5D5DB)"/>
<path d="M58.4299 10.531C58.4299 11.0302 58.3038 11.4878 58.0516 11.9039C57.81 12.3199 57.479 12.6527 57.0587 12.9024C56.6489 13.1416 56.1866 13.2612 55.6717 13.2612H49.6352C49.8559 13.7188 50.1816 14.0933 50.6124 14.3845C51.0537 14.6757 51.5476 14.8213 52.094 14.8213H57.2478V16.3815H52.094C51.495 16.3815 50.9329 16.2723 50.4075 16.0538C49.8927 15.825 49.4356 15.513 49.0363 15.1178C48.6475 14.7225 48.3428 14.2701 48.1222 13.7604C47.9015 13.2404 47.7912 12.6839 47.7912 12.0911C47.7912 11.4982 47.9015 10.947 48.1222 10.4373C48.3428 9.9173 48.6475 9.45966 49.0363 9.06443C49.4356 8.66919 49.8927 8.36237 50.4075 8.14395C50.9329 7.91513 51.495 7.80072 52.094 7.80072H55.6717C56.1866 7.80072 56.6489 7.92553 57.0587 8.17515C57.479 8.41437 57.81 8.742 58.0516 9.15803C58.3038 9.56367 58.4299 10.0213 58.4299 10.531ZM55.6717 11.7011C55.9975 11.7011 56.2759 11.5866 56.5071 11.3578C56.7382 11.129 56.8538 10.8534 56.8538 10.531C56.8538 10.2085 56.7382 9.9329 56.5071 9.70408C56.2759 9.47526 55.9975 9.36085 55.6717 9.36085H52.094C51.6316 9.36085 51.2061 9.46486 50.8173 9.67288C50.439 9.8809 50.1238 10.1617 49.8716 10.5154C49.6195 10.869 49.4619 11.2642 49.3988 11.7011H55.6717Z" fill="var(--fill-0, #D5D5DB)"/>
<path d="M69.4261 16.3815H67.1723L63.7994 13.152L60.4896 16.3815H58.2357L62.7119 12.1067L58.2357 7.80072H60.4896L69.4261 16.3815ZM69.4261 7.80072L65.675 11.4202L64.5402 10.4217L67.1723 7.80072H69.4261Z" fill="var(--fill-0, #D5D5DB)"/>
</g>
</g>
</svg>
