<svg preserveAspectRatio="none" width="100%" height="100%" overflow="visible" style="display: block;" viewBox="0 0 73 21" fill="none" xmlns="http://www.w3.org/2000/svg">
<g id="Frame 4">
<g id="Vector">
<path d="M12.9006 5.72977C13.339 5.81898 13.673 5.96977 13.9024 6.18905C14.1249 6.40142 14.2434 6.70358 14.2434 7.10818V7.14272C14.2434 7.56804 14.1249 7.89724 13.8954 8.13034C13.666 8.36343 13.3455 8.52803 12.935 8.61724C12.5246 8.70645 12.0097 8.75422 11.3903 8.75422H11.0563L7 8.74041V3H11.7452C12.3577 3.00691 12.8375 3.13007 13.1995 3.37065C13.5615 3.61064 13.7425 3.96057 13.7425 4.39971V4.43424C13.7425 4.77035 13.673 5.04488 13.527 5.25726C13.3951 5.46963 13.1791 5.6279 12.9006 5.73035V5.72977ZM12.1492 4.65985C12.1492 4.46762 12.1078 4.33064 12.0173 4.24834C11.9268 4.15913 11.8083 4.10446 11.6623 4.08374C11.5234 4.06302 11.3144 4.0492 11.0499 4.0492H8.55236V5.26301L10.4451 5.27682H11.0505C11.336 5.27682 11.5444 5.26992 11.6699 5.25611C11.8019 5.24229 11.9134 5.18762 12.0109 5.09841C12.1014 5.01611 12.1498 4.86532 12.1498 4.65927L12.1492 4.65985ZM11.3074 7.60257C11.6273 7.60257 11.8637 7.58876 12.0243 7.56804C12.1843 7.54041 12.3098 7.47883 12.4003 7.38271C12.4978 7.2866 12.5392 7.1289 12.5392 6.90962C12.5392 6.69034 12.4908 6.54588 12.4003 6.45034C12.3028 6.35423 12.1778 6.29265 12.0243 6.27193C11.8643 6.25121 11.6279 6.2374 11.3074 6.2374H8.55236V7.58185C9.69313 7.58185 10.5005 7.58876 10.9874 7.59566L11.3074 7.60257Z" fill="var(--fill-0, #D5D5DB)"/>
<path d="M16.247 8.74102H14.7093V3.00004H16.247V8.74102Z" fill="var(--fill-0, #D5D5DB)"/>
<path d="M19.7056 4.33615C20.255 4.33615 20.7495 4.43227 21.1944 4.63083C21.6328 4.82996 21.9808 5.10392 22.2242 5.45385C22.4747 5.80377 22.5996 6.18766 22.5996 6.62679C22.5996 7.06592 22.4747 7.44981 22.2242 7.79973C21.9808 8.14966 21.6328 8.41729 21.1944 8.61585C20.7559 8.81498 20.255 8.91052 19.7056 8.91052C19.1563 8.91052 18.6758 8.81441 18.2169 8.61585C17.7575 8.41671 17.3821 8.14275 17.1036 7.79283C16.8321 7.4429 16.6932 7.05211 16.6932 6.62679C16.6932 6.20147 16.8321 5.81068 17.1036 5.46075C17.3821 5.11083 17.7505 4.83629 18.2169 4.63773C18.6834 4.43169 19.1773 4.33615 19.7056 4.33615ZM19.7056 7.93038C20.081 7.93038 20.4086 7.82045 20.673 7.59427C20.9375 7.37499 21.0764 7.04578 21.0764 6.62737C21.0764 6.20895 20.9445 5.87284 20.673 5.64665C20.4086 5.42737 20.0816 5.31054 19.7056 5.31054C19.4622 5.31054 19.2328 5.35831 19.0027 5.45442C18.7803 5.55054 18.5993 5.69442 18.4598 5.88665C18.3208 6.08579 18.2444 6.32578 18.2444 6.61355C18.2444 6.90132 18.3138 7.1419 18.4598 7.33355C18.5987 7.53269 18.7797 7.67657 19.0027 7.77268C19.2322 7.88261 19.4622 7.93038 19.7056 7.93038Z" fill="var(--fill-0, #D5D5DB)"/>
<path d="M22.8781 6.64889C22.8781 6.21666 23.01 5.82587 23.2605 5.47594C23.5179 5.12602 23.8729 4.85149 24.3178 4.65293C24.7632 4.45379 25.2571 4.35825 25.8001 4.35825C26.5795 4.35825 27.1983 4.52976 27.6648 4.86587C28.1377 5.19508 28.4442 5.64803 28.5971 6.21033H27.0524C26.9899 5.95652 26.8433 5.75105 26.6209 5.59278C26.3985 5.42817 26.127 5.34587 25.8071 5.34587C25.3897 5.34587 25.0557 5.46961 24.8053 5.70961C24.5618 5.94961 24.4363 6.265 24.4363 6.65637C24.4363 6.88946 24.4917 7.10932 24.5963 7.30788C24.7008 7.50701 24.8537 7.66471 25.0557 7.78788C25.2577 7.90471 25.5012 7.96629 25.7791 7.96629C26.113 7.96629 26.3915 7.88399 26.6139 7.72629C26.8433 7.56169 26.9893 7.35565 27.0453 7.10874H28.5901C28.5347 7.43795 28.3811 7.74644 28.1242 8.03478C27.8668 8.31622 27.5328 8.5355 27.1224 8.7001C26.719 8.86471 26.2805 8.94701 25.8007 8.94701C25.2717 8.94701 24.7848 8.85089 24.3394 8.65233C23.8939 8.4532 23.539 8.17924 23.2751 7.82931C23.0106 7.46558 22.8787 7.07479 22.8787 6.64946L22.8781 6.64889Z" fill="var(--fill-0, #D5D5DB)"/>
<path d="M32.0348 6.40895L34.4215 8.74793H32.5918L30.4836 6.73125V8.74793H28.9459V3.00004H30.4836V6.10737L32.2859 4.51601H34.1436L32.0354 6.40895H32.0348Z" fill="var(--fill-0, #D5D5DB)"/>
<path d="M33.9051 6.64889C33.9051 6.21666 34.0307 5.82587 34.2875 5.47594C34.545 5.12602 34.9 4.85149 35.3448 4.65293C35.7903 4.45379 36.2842 4.35825 36.8265 4.35825C37.6059 4.35825 38.2254 4.52976 38.6912 4.86587C39.1641 5.19508 39.4706 5.64803 39.6236 6.21033H38.0788C38.0164 5.95652 37.8698 5.75105 37.6474 5.59278C37.4249 5.42817 37.1535 5.34587 36.8335 5.34587C36.4161 5.34587 36.0822 5.46961 35.8317 5.70961C35.5883 5.94961 35.4628 6.265 35.4628 6.65637C35.4628 6.88946 35.5182 7.10932 35.6227 7.30788C35.7272 7.50644 35.8802 7.66471 36.0822 7.78788C36.2842 7.90471 36.5276 7.96629 36.8055 7.96629C37.1395 7.96629 37.4179 7.88399 37.6404 7.72629C37.8698 7.56169 38.0163 7.35565 38.0718 7.10874H39.6166C39.5611 7.43795 39.4082 7.74644 39.1507 8.03478C38.8932 8.31622 38.5593 8.5355 38.1489 8.7001C37.7455 8.86471 37.307 8.94701 36.8271 8.94701C36.2982 8.94701 35.8113 8.85089 35.3658 8.65233C34.9204 8.4532 34.566 8.17924 34.3015 7.82931C34.0371 7.46558 33.9051 7.07479 33.9051 6.64946V6.64889Z" fill="var(--fill-0, #D5D5DB)"/>
<path d="M43.3747 4.37212C43.9591 4.37212 44.432 4.57816 44.808 4.98967C45.1834 5.40118 45.3714 6.07341 45.3714 6.99254V8.7416H43.8336V7.02017C43.8336 6.69096 43.8126 6.40952 43.7641 6.18334C43.7227 5.95715 43.6182 5.76492 43.4582 5.60722C43.2982 5.44953 43.0478 5.37413 42.7208 5.37413C42.3939 5.37413 42.1154 5.45643 41.9415 5.61413C41.7745 5.77183 41.663 5.97096 41.6215 6.20405C41.5731 6.43024 41.5521 6.71168 41.5521 7.03398V8.7416H40.0143V3.00004H41.5521V5.03054C41.9485 4.5914 42.5539 4.37212 43.3747 4.37212Z" fill="var(--fill-0, #D5D5DB)"/>
<path d="M48.6419 4.32358C49.3653 4.32358 50.0127 4.44732 50.5901 4.69422C51.1605 4.94113 51.446 5.38027 51.446 6.00415V8.73392H50.0127L49.8872 8.08932V8.04788C49.7687 8.28788 49.4908 8.4732 49.0523 8.60327C48.6209 8.74025 48.155 8.80241 47.6401 8.80241C47.2297 8.80241 46.8193 8.72011 46.3948 8.5555C45.9774 8.38399 45.762 8.02025 45.762 7.45795C45.762 6.89565 45.943 6.57335 46.2979 6.40184C46.6599 6.23033 47.0493 6.14803 47.4597 6.14803C48.2601 6.14803 48.8165 6.14113 49.1294 6.13422C49.4423 6.12041 49.6443 6.09278 49.7348 6.05192C49.8323 6.01048 49.8878 5.93508 49.8948 5.82573V5.74343C49.8878 5.56501 49.7558 5.42113 49.4984 5.32501C49.2479 5.22199 48.9554 5.16732 48.6215 5.16732C48.2665 5.16732 47.9606 5.2289 47.7102 5.34573C47.4667 5.46257 47.3412 5.64041 47.3412 5.88098H45.8034C45.8034 5.48329 45.9564 5.16789 46.2623 4.93422C46.5752 4.70113 46.9372 4.54343 47.3616 4.45423C47.8071 4.37192 48.2315 4.32415 48.6419 4.32415V4.32358ZM49.8942 6.63551C49.6437 6.75235 49.2543 6.80702 48.7394 6.80702C48.3845 6.80702 48.113 6.82084 47.9116 6.84846C47.7166 6.87609 47.5706 6.92386 47.4801 6.98544C47.3896 7.04702 47.3412 7.14314 47.3412 7.26688C47.3552 7.43839 47.4457 7.56846 47.6057 7.65767C47.7726 7.74687 48.0511 7.78774 48.4475 7.78774C48.9694 7.78774 49.3378 7.67781 49.5608 7.45162C49.7833 7.23234 49.9018 6.95781 49.9018 6.64242V6.63551H49.8942Z" fill="var(--fill-0, #D5D5DB)"/>
<path d="M53.4985 3.00004H51.9608V4.05615H53.4985V3.00004ZM53.4985 8.74102H51.9608V4.28291H53.4985V8.74102Z" fill="var(--fill-0, #D5D5DB)"/>
<path d="M57.4018 4.37222C58.0212 4.37222 58.5011 4.57136 58.8491 4.97596C59.197 5.38057 59.371 6.05279 59.371 6.99265V8.7417H57.8333V7.02027C57.8333 6.69106 57.8122 6.40963 57.7638 6.18344C57.7218 5.95725 57.6178 5.76502 57.4579 5.60733C57.2979 5.44963 57.0475 5.37423 56.7205 5.37423C56.3936 5.37423 56.1151 5.44963 55.9411 5.60733C55.7742 5.75812 55.6626 5.95035 55.6212 6.18344C55.5727 6.40963 55.5517 6.69797 55.5517 7.03408V8.7417H54.014V4.51611H55.5517V5.05769C55.9551 4.59841 56.5746 4.37165 57.4024 4.37165L57.4018 4.37222Z" fill="var(--fill-0, #D5D5DB)"/>
<path d="M11.1686 13.1518C11.718 13.1518 12.1984 13.1864 12.6019 13.2549C13.0053 13.3233 13.3392 13.4672 13.6107 13.6871C13.8822 13.9064 14.0211 14.2356 14.0211 14.6747C14.0211 15.4701 13.6661 16.0123 12.9568 16.2868C12.2469 16.5682 11.4541 16.7052 10.5702 16.7052C9.68629 16.7052 8.89348 16.5613 8.1351 16.2799C7.37673 15.9915 7.00075 15.4431 7.00075 14.6338L8.69148 14.62C8.69148 14.9015 8.80299 15.1138 9.02542 15.2577C9.24785 15.3947 9.49831 15.4839 9.75577 15.5184C10.0202 15.553 10.3121 15.5662 10.6186 15.5662C11.0915 15.5662 11.4955 15.4977 11.8365 15.3671C12.1774 15.2301 12.3514 15.0172 12.3584 14.7156V14.7087C12.3584 14.4894 12.1844 14.3449 11.8435 14.2833C11.5095 14.2149 11.0991 14.1803 10.6256 14.1803H10.1387C9.51232 14.1803 8.97696 14.1458 8.53852 14.0842C8.10007 14.0157 7.73811 13.8649 7.4392 13.6313C7.14671 13.3913 7.00075 13.0344 7.00075 12.5613C7.00075 11.2652 8.19057 10.6131 10.5702 10.6131C11.412 10.6131 12.1984 10.757 12.9218 11.0385C13.6521 11.3199 14.0141 11.8684 14.0141 12.6845H12.3374C12.3374 12.3962 12.1634 12.1769 11.8225 12.0261C11.4815 11.8753 11.0641 11.793 10.5772 11.7723C10.0483 11.7723 9.59639 11.8339 9.22041 11.9576C8.85144 12.0813 8.67104 12.273 8.67104 12.5406C8.67104 12.9521 9.28346 13.1651 10.5007 13.1651L11.1686 13.1513V13.1518Z" fill="var(--fill-0, #D5D5DB)"/>
<path d="M20.1716 14.5094C20.1575 14.88 20.0671 15.2225 19.8931 15.5586C19.7191 15.8878 19.4757 16.1623 19.1627 16.3678C18.8498 16.5669 18.4878 16.6694 18.0844 16.6694C17.1801 16.6694 16.4982 16.4564 16.0387 16.0386V18H14.501V12.2935H15.8788L15.9903 12.8628C16.4498 12.4098 17.1521 12.1905 18.0844 12.2043C18.4878 12.2043 18.8428 12.3005 19.1557 12.499C19.4686 12.6982 19.7191 12.9652 19.8931 13.3082C20.0741 13.6512 20.1646 14.0351 20.1716 14.4535V14.5094ZM17.284 15.737C17.5625 15.737 17.7989 15.6754 17.9939 15.5517C18.1959 15.4285 18.3419 15.2702 18.4394 15.0786C18.5439 14.8794 18.5994 14.6809 18.6064 14.4748C18.5923 14.091 18.4808 13.7687 18.2584 13.5148C18.036 13.2541 17.7085 13.1241 17.2846 13.1241C17.0412 13.1241 16.8251 13.1856 16.6307 13.3025C16.4427 13.4193 16.2968 13.577 16.1923 13.7756C16.0878 13.9747 16.0323 14.1802 16.0323 14.4063V14.4202C16.0323 14.8109 16.1508 15.1269 16.3803 15.3738C16.6097 15.6138 16.9162 15.7376 17.2846 15.7376L17.284 15.737Z" fill="var(--fill-0, #D5D5DB)"/>
<path d="M23.5038 12.1157C24.0532 12.1157 24.5477 12.2118 24.9926 12.4103C25.431 12.6095 25.779 12.8834 26.0224 13.2333C26.2729 13.5833 26.3978 13.9672 26.3978 14.4063C26.3978 14.8454 26.2723 15.2293 26.0224 15.5792C25.779 15.9292 25.431 16.1968 24.9926 16.3953C24.5541 16.5945 24.0532 16.69 23.5038 16.69C22.9545 16.69 22.474 16.5939 22.0151 16.3953C21.5556 16.1962 21.1803 15.9223 20.9018 15.5723C20.6303 15.2224 20.4914 14.8316 20.4914 14.4063C20.4914 13.981 20.6303 13.5902 20.9018 13.2403C21.1803 12.8903 21.5486 12.6158 22.0151 12.4172C22.4746 12.2181 22.9685 12.1157 23.5038 12.1157ZM23.5038 15.7093C23.8798 15.7093 24.2067 15.5994 24.4712 15.3732C24.7357 15.1539 24.8746 14.8247 24.8746 14.4063C24.8746 13.9879 24.7427 13.6518 24.4712 13.4256C24.2067 13.2063 23.8798 13.0895 23.5038 13.0895C23.2604 13.0895 23.0309 13.1372 22.8009 13.2403C22.5785 13.3364 22.3975 13.4803 22.2586 13.6725C22.1196 13.8716 22.0425 14.1116 22.0425 14.3994C22.0425 14.6872 22.112 14.9277 22.2586 15.1194C22.3975 15.3185 22.5785 15.4624 22.8009 15.5585C23.0234 15.6684 23.2604 15.7093 23.5038 15.7093Z" fill="var(--fill-0, #D5D5DB)"/>
<path d="M28.3126 13.0013C28.723 12.5622 29.3634 12.3015 30.2397 12.2192V13.433H29.2589C28.8969 13.433 28.6465 13.5561 28.5216 13.803C28.3966 14.0499 28.3336 14.3861 28.3336 14.8114V16.5259H26.7958V12.294H28.1666L28.3126 13.0002V13.0013Z" fill="var(--fill-0, #D5D5DB)"/>
<path d="M33.0705 12.2946H33.8913V13.3783H33.0705V16.5196H31.5327V13.3783H30.6768V12.2946H31.5327V11.3754L33.0705 10.6554V12.2946Z" fill="var(--fill-0, #D5D5DB)"/>
<path d="M37.0165 14.0433C37.1625 14.0433 37.274 14.0433 37.3575 14.0364L37.7749 14.0295C38.3733 14.0295 38.8602 14.1118 39.2292 14.2695C39.6046 14.4272 39.7855 14.7356 39.7855 15.2093C39.7855 15.82 39.5141 16.2246 38.9647 16.4231C38.4218 16.6154 37.7819 16.7109 37.0586 16.7109C36.3352 16.7109 35.7018 16.6079 35.1104 16.3955C34.526 16.1762 34.2271 15.7647 34.2271 15.1541L35.7788 15.161C35.7788 15.4217 35.9038 15.6001 36.1548 15.6956C36.4053 15.7918 36.7048 15.8326 37.0521 15.8326C37.4766 15.8326 37.7895 15.7848 37.9845 15.6956C38.1795 15.5995 38.277 15.4556 38.277 15.2634C38.277 15.0712 38.1655 14.948 37.936 14.8997C37.7136 14.845 37.5116 14.8174 37.3236 14.8174H36.9756C36.4887 14.8174 36.0503 14.7967 35.6673 14.7489C35.2849 14.6942 34.951 14.5774 34.6585 14.3921C34.373 14.1998 34.2271 13.9121 34.2271 13.5276C34.2271 12.9515 34.5125 12.5808 35.0759 12.403C35.6393 12.2246 36.2938 12.1423 37.0381 12.1423C37.7825 12.1423 38.3739 12.2453 38.9373 12.4577C39.5006 12.67 39.7791 13.0821 39.7791 13.6922L38.2484 13.6853C38.2484 13.4177 38.1024 13.2393 37.8169 13.15C37.5314 13.0608 37.2676 13.02 37.0375 13.02C36.1957 13.02 35.7783 13.1846 35.7783 13.5138C35.7853 13.8499 36.1957 14.0352 37.0165 14.0421V14.0433Z" fill="var(--fill-0, #D5D5DB)"/>
<path d="M63.5658 4.52783C63.6143 4.40409 63.7953 4.40409 63.8443 4.52783L64.3733 5.77617C64.3943 5.82394 64.4427 5.86538 64.4988 5.86538L65.862 5.97531C65.9945 5.98912 66.05 6.15372 65.9455 6.23603L64.9092 7.11372C64.8672 7.14825 64.8467 7.20984 64.8607 7.26451L65.1807 8.57444C65.2087 8.70451 65.0692 8.80753 64.9582 8.73904L63.7894 8.03228C63.741 8.00465 63.6779 8.00465 63.6295 8.03228L62.4607 8.73904C62.3492 8.80753 62.2032 8.70451 62.2383 8.57444L62.5582 7.26451C62.5722 7.20984 62.5512 7.15458 62.5091 7.11372L61.4723 6.23603C61.3678 6.14682 61.4238 5.98221 61.5558 5.97531L62.9196 5.86538C62.975 5.85847 63.0241 5.82394 63.0445 5.77617L63.5664 4.52783H63.5658Z" fill="var(--fill-0, #D5D5DB)"/>
</g>
</g>
</svg>
