<svg preserveAspectRatio="none" width="100%" height="100%" overflow="visible" style="display: block;" viewBox="0 0 57 21" fill="none" xmlns="http://www.w3.org/2000/svg">
<g id="Frame 3">
<g id="Vector">
<path d="M11.4275 4.66672C11.4275 5.03493 11.1054 5.33343 10.708 5.33343C10.3107 5.33343 9.98858 5.03493 9.98858 4.66672C9.98858 4.2985 10.3107 4 10.708 4C11.1054 4 11.4275 4.2985 11.4275 4.66672Z" fill="var(--fill-0, #D5D5DB)"/>
<path d="M7.37534 15.7708C7.53324 15.9205 7.74305 16 7.95727 16L7.95838 15.9995C8.06494 15.9995 8.17205 15.9801 8.27474 15.9398C8.58393 15.8184 8.7838 15.5348 8.7838 15.2177V11.9256L9.55014 15.3349L9.55401 15.3506C9.65118 15.7357 10.0371 15.9916 10.4523 15.9451C10.8664 15.899 11.1789 15.5667 11.1806 15.1721L11.2026 11.3835L12.1782 15.3579L12.1805 15.3658C12.2815 15.7556 12.6602 16.0031 13.0804 15.955C13.5011 15.9063 13.8059 15.5803 13.8059 15.179L13.7926 11.9058L14.596 15.3506C14.6882 15.7399 15.073 16 15.4915 15.956C15.91 15.9121 16.2253 15.5782 16.2253 15.1795V5.09704C16.2253 4.73615 15.9188 4.44359 15.5407 4.44359C15.1626 4.44359 14.856 4.73615 14.856 5.09704V10.4541L14.0328 6.924C13.9406 6.53467 13.5558 6.27459 13.1373 6.31855C12.7188 6.36251 12.4035 6.69637 12.4035 7.09512L12.4179 10.608L11.4864 6.81515L11.4842 6.80731C11.3832 6.41745 11.0044 6.16993 10.5843 6.21808C10.1647 6.26622 9.86044 6.59119 9.85878 6.99098L9.8389 10.3945L9.0444 6.86068L9.04054 6.84498C8.94336 6.45984 8.55743 6.20395 8.14223 6.25052C7.72704 6.29657 7.41399 6.63043 7.41399 7.02656L7.41399 13.9728L6.16252 12.7866C5.89658 12.5346 5.46738 12.5346 5.20144 12.7866C4.93285 13.0412 4.93285 13.4558 5.20144 13.7104L7.37534 15.7708Z" fill="var(--fill-0, #D5D5DB)"/>
<path d="M21.3136 15.655C20.909 15.655 20.4903 15.6269 20.0575 15.5707C19.6341 15.5238 19.2765 15.4723 18.9849 15.4161V12.2539C19.1636 12.3101 19.4224 12.3663 19.7611 12.4225C20.1092 12.4694 20.3962 12.4928 20.622 12.4928C21.0266 12.4928 21.323 12.3991 21.5112 12.2117C21.7088 12.0149 21.8076 11.687 21.8076 11.2279V8.48732H19.4788V5.67647H25.2654V11.7198C25.2654 13.0503 24.9361 14.0388 24.2774 14.6852C23.6282 15.3317 22.6403 15.655 21.3136 15.655Z" fill="var(--fill-0, #D5D5DB)"/>
<path d="M31.6148 15.7253C30.4575 15.7253 29.4648 15.5238 28.6369 15.1209C27.8183 14.718 27.1926 14.1324 26.7598 13.3642C26.3269 12.5959 26.1105 11.673 26.1105 10.5955C26.1105 9.54608 26.3364 8.63723 26.788 7.86894C27.249 7.09127 27.9077 6.4963 28.7639 6.08405C29.6295 5.67179 30.6504 5.46566 31.8265 5.46566C32.3252 5.46566 32.805 5.49845 33.2661 5.56404C33.7271 5.62962 34.1646 5.71863 34.5786 5.83107V8.8949C34.2211 8.79183 33.8212 8.71219 33.379 8.65597C32.9368 8.59039 32.5369 8.55759 32.1793 8.55759C31.643 8.55759 31.182 8.64192 30.7962 8.81057C30.4199 8.97922 30.1329 9.22283 29.9353 9.54139C29.7377 9.85996 29.6389 10.2347 29.6389 10.6657C29.6389 11.1248 29.7189 11.5137 29.8788 11.8322C30.0482 12.1414 30.2928 12.3757 30.6127 12.5349C30.9421 12.6942 31.3466 12.7739 31.8265 12.7739C32.0147 12.7739 32.2029 12.7504 32.391 12.7036C32.5886 12.6568 32.758 12.5912 32.8991 12.5068L32.1793 13.3079V11.7198H30.8386V9.68193H34.9315V15.0928C34.4516 15.3083 33.9247 15.4676 33.3508 15.5707C32.7862 15.6737 32.2076 15.7253 31.6148 15.7253Z" fill="var(--fill-0, #D5D5DB)"/>
<path d="M41.2076 15.7253C40.0503 15.7253 39.0576 15.5238 38.2296 15.1209C37.411 14.718 36.7853 14.1324 36.3525 13.3642C35.9197 12.5959 35.7033 11.673 35.7033 10.5955C35.7033 9.54608 35.9291 8.63723 36.3808 7.86894C36.8418 7.09127 37.5004 6.4963 38.3566 6.08405C39.2223 5.67179 40.2432 5.46566 41.4193 5.46566C41.918 5.46566 42.3978 5.49845 42.8589 5.56404C43.3199 5.62962 43.7574 5.71863 44.1714 5.83107V8.8949C43.8139 8.79183 43.414 8.71219 42.9718 8.65597C42.5295 8.59039 42.1297 8.55759 41.7721 8.55759C41.2358 8.55759 40.7748 8.64192 40.389 8.81057C40.0126 8.97922 39.7257 9.22283 39.5281 9.54139C39.3305 9.85996 39.2317 10.2347 39.2317 10.6657C39.2317 11.1248 39.3117 11.5137 39.4716 11.8322C39.641 12.1414 39.8856 12.3757 40.2055 12.5349C40.5348 12.6942 40.9394 12.7739 41.4193 12.7739C41.6075 12.7739 41.7956 12.7504 41.9838 12.7036C42.1814 12.6568 42.3508 12.5912 42.4919 12.5068L41.7721 13.3079V11.7198H40.4313V9.68193H44.5243V15.0928C44.0444 15.3083 43.5175 15.4676 42.9435 15.5707C42.379 15.6737 41.8003 15.7253 41.2076 15.7253Z" fill="var(--fill-0, #D5D5DB)"/>
<path d="M45.6489 15.5145V5.67647H49.1067V12.4225H52V15.5145H45.6489Z" fill="var(--fill-0, #D5D5DB)"/>
</g>
</g>
</svg>
