<svg preserveAspectRatio="none" width="100%" height="100%" overflow="visible" style="display: block;" viewBox="0 0 136 50.1897" fill="none" xmlns="http://www.w3.org/2000/svg">
<g id="Frame 11188">
<path id="tempt" d="M135.964 42.7131C133.694 43.1302 131.464 43.3089 129.275 43.2493C127.106 43.2096 125.161 42.8422 123.438 42.147C121.735 41.432 120.438 39.943 119.546 38.3739C118.735 36.9042 118.31 35.4146 118.269 33.9051C118.229 32.3758 118.208 30.9949 118.208 29.0683V1.60013H126.478V28.5917C126.478 29.8429 126.488 30.975 126.508 31.988C126.549 32.981 126.762 33.7755 127.147 34.3713C127.877 35.5034 129.042 36.1191 130.643 36.2184C132.245 36.3177 134.018 36.2383 135.964 35.9801V42.7131ZM118.208 16.794V10.5377H135.964V16.794H118.208Z" fill="var(--fill-0, black)"/>
<g id="Vector 962" filter="url(#filter0_f_0_19)">
<path d="M117.358 4.06047C125.662 8.82717 127.199 22.0509 117.82 26.8176" stroke="var(--stroke-0, #2A0E45)" stroke-opacity="0.3" stroke-width="3.69035"/>
</g>
<path id="Vector 960" d="M88.297 30.1948C104.288 -3.16658 109.864 47.1144 101.674 47.1144C93.4852 47.1144 94.7551 7.07804 110.285 5.13676C123.817 3.44534 127.046 25.8949 112.438 25.8949" stroke="var(--stroke-0, #C286FF)" stroke-width="6.15058"/>
<g id="Vector 963" filter="url(#filter1_f_0_19)">
<path d="M91.0647 16.2082V30.9696" stroke="var(--stroke-0, #091227)" stroke-opacity="0.22" stroke-width="3.69035"/>
</g>
<path id="tempt_2" d="M83.5978 40.9349V21.5805C83.5978 19.4554 83.081 17.8069 82.0473 16.6351C81.0338 15.4434 79.6251 14.8475 77.8212 14.8475C75.6667 14.8475 73.7732 15.9583 72.8046 17.8565C72.3384 18.79 72.1053 19.8725 72.1053 21.1039L68.6393 18.8397C68.6393 16.6351 69.1663 14.6887 70.2203 13.0004C71.2946 11.3122 72.7235 10.0014 74.5072 9.0679C76.3111 8.11456 78.3076 7.63789 80.4967 7.63789C84.2465 7.63789 87.074 8.73026 88.9793 10.915C90.9048 13.0799 91.8676 15.9201 91.8676 19.4355V28.9088V40.9349H83.5978ZM44.0125 40.9349V8.41248H52.3431V19.078V40.9349H44.0125ZM63.8356 40.9349V21.5805C63.8356 19.4554 63.3187 17.8069 62.285 16.6351C61.2716 15.4434 59.8629 14.8475 58.0589 14.8475C54.4743 14.8475 52.3431 17.7827 52.3431 21.1039L48.8771 18.7205C48.8771 16.6152 49.4142 14.7284 50.4885 13.06C51.5627 11.3917 53.0018 10.0709 54.8058 9.09769C56.63 8.12449 58.667 7.63789 60.9169 7.63789C63.491 7.63789 65.599 8.17414 67.2408 9.24665C68.9028 10.3192 70.1291 11.7492 70.9196 13.5367C71.7101 15.3242 72.1053 17.2905 72.1053 19.4355V40.9349H63.8356Z" fill="var(--fill-0, black)"/>
<g id="Rectangle 84" filter="url(#filter2_f_0_19)">
<path d="M12.3372 36.351H16.1813L19.4103 41.1177L17.7189 44.0393C17.7189 44.0393 16.1813 43.1167 14.3361 40.8102C12.3912 38.3789 12.3372 36.351 12.3372 36.351Z" fill="var(--fill-0, #3D0E6B)" fill-opacity="0.5"/>
</g>
<g id="Vector 969" filter="url(#filter3_f_0_19)">
<path d="M43.5513 39.5799L42.0137 34.0443L47.2417 30.354L48.7793 36.6583L43.5513 39.5799Z" fill="var(--fill-0, #3D0E6B)" fill-opacity="0.5"/>
</g>
<path id="Vector 964" d="M41.9443 7.64141C38.5823 6.37406 30.3693 4.79391 24.4138 8.61215C16.9693 13.3849 17.8584 27.0562 32.2038 27.0562C42.3216 27.0562 43.4324 15.8206 32.2038 17.5915C5.87885 21.7432 10.6459 58.0317 46.7806 34.2192" stroke="var(--stroke-0, #C286FF)" stroke-width="6.15058"/>
<g id="Vector 966" filter="url(#filter4_f_0_19)">
<path d="M15.5663 16.9769V13.4403L19.8717 10.5188L17.8728 16.9769H15.5663Z" fill="var(--fill-0, #3D0E6B)" fill-opacity="0.5"/>
</g>
<g id="Vector 967" filter="url(#filter5_f_0_19)">
<path d="M13.8747 44.1931L13.721 38.0425L19.4102 35.121L17.8726 43.5781L13.8747 44.1931Z" fill="var(--fill-0, #3D0E6B)" fill-opacity="0.5"/>
</g>
<path id="Union" d="M8.30552 10.5375H17.7918V10.7035H17.8729V17.0785H8.30552V28.5912C8.30552 29.8424 8.31553 30.9748 8.33579 31.9877C8.37633 32.9808 8.58936 33.7757 8.97447 34.3715C9.70409 35.5034 10.8696 36.1188 12.4706 36.2182C14.0718 36.3175 15.846 36.2381 17.7918 35.9799V42.7133C15.5217 43.1304 13.2914 43.309 11.1024 43.2494C8.93383 43.2097 6.98821 42.842 5.26548 42.1469C3.56298 41.4319 2.26571 40.29 1.37388 38.7211C0.563176 37.2515 0.137124 35.7617 0.0965363 34.2524C0.0559982 32.723 0.0359894 30.9943 0.0359894 29.0678V1.60001H8.30552V10.5375Z" fill="var(--fill-0, black)"/>
</g>
<defs>
<filter id="filter0_f_0_19" x="113.979" y="0" width="14.567" height="30.9228" filterUnits="userSpaceOnUse" color-interpolation-filters="sRGB">
<feFlood flood-opacity="0" result="BackgroundImageFix"/>
<feBlend mode="normal" in="SourceGraphic" in2="BackgroundImageFix" result="shape"/>
<feGaussianBlur stdDeviation="1.23012" result="effect1_foregroundBlur_0_19"/>
</filter>
<filter id="filter1_f_0_19" x="88.2969" y="15.2856" width="5.53553" height="16.6066" filterUnits="userSpaceOnUse" color-interpolation-filters="sRGB">
<feFlood flood-opacity="0" result="BackgroundImageFix"/>
<feBlend mode="normal" in="SourceGraphic" in2="BackgroundImageFix" result="shape"/>
<feGaussianBlur stdDeviation="0.461294" result="effect1_foregroundBlur_0_19"/>
</filter>
<filter id="filter2_f_0_19" x="10.1845" y="34.1983" width="11.3786" height="11.9936" filterUnits="userSpaceOnUse" color-interpolation-filters="sRGB">
<feFlood flood-opacity="0" result="BackgroundImageFix"/>
<feBlend mode="normal" in="SourceGraphic" in2="BackgroundImageFix" result="shape"/>
<feGaussianBlur stdDeviation="1.07635" result="effect1_foregroundBlur_0_19"/>
</filter>
<filter id="filter3_f_0_19" x="39.861" y="28.2013" width="11.071" height="13.5313" filterUnits="userSpaceOnUse" color-interpolation-filters="sRGB">
<feFlood flood-opacity="0" result="BackgroundImageFix"/>
<feBlend mode="normal" in="SourceGraphic" in2="BackgroundImageFix" result="shape"/>
<feGaussianBlur stdDeviation="1.07635" result="effect1_foregroundBlur_0_19"/>
</filter>
<filter id="filter4_f_0_19" x="13.4136" y="8.36606" width="8.61082" height="10.7635" filterUnits="userSpaceOnUse" color-interpolation-filters="sRGB">
<feFlood flood-opacity="0" result="BackgroundImageFix"/>
<feBlend mode="normal" in="SourceGraphic" in2="BackgroundImageFix" result="shape"/>
<feGaussianBlur stdDeviation="1.07635" result="effect1_foregroundBlur_0_19"/>
</filter>
<filter id="filter5_f_0_19" x="11.5683" y="32.9683" width="9.9947" height="13.3775" filterUnits="userSpaceOnUse" color-interpolation-filters="sRGB">
<feFlood flood-opacity="0" result="BackgroundImageFix"/>
<feBlend mode="normal" in="SourceGraphic" in2="BackgroundImageFix" result="shape"/>
<feGaussianBlur stdDeviation="1.07635" result="effect1_foregroundBlur_0_19"/>
</filter>
</defs>
</svg>
